G04 #@! TF.GenerationSoftware,KiCad,Pcbnew,(5.0.0-rc2-198-gb8bbb15aa)*
G04 #@! TF.CreationDate,2018-07-05T00:48:06-05:00*
G04 #@! TF.ProjectId,rocket,726F636B65742E6B696361645F706362,rev?*
G04 #@! TF.SameCoordinates,Original*
G04 #@! TF.FileFunction,Legend,Bot*
G04 #@! TF.FilePolarity,Positive*
%FSLAX46Y46*%
G04 Gerber Fmt 4.6, Leading zero omitted, Abs format (unit mm)*
G04 Created by KiCad (PCBNEW (5.0.0-rc2-198-gb8bbb15aa)) date 07/05/18 00:48:06*
%MOMM*%
%LPD*%
G01*
G04 APERTURE LIST*
%ADD10C,0.200000*%
%ADD11C,0.150000*%
G04 APERTURE END LIST*
D10*
X13113607Y-61697659D02*
X13338522Y-62345022D01*
X14177948Y-65577512D02*
X14371961Y-66570122D01*
X12156522Y-59581659D02*
X12646527Y-60556812D01*
X14371961Y-66570122D02*
X14559342Y-67643647D01*
X11102415Y-57948868D02*
X11642636Y-58726199D01*
X15240000Y-68800000D02*
X14740000Y-68800000D01*
X14755842Y-59275903D02*
X14887189Y-60253662D01*
X13338522Y-62345022D02*
X13557562Y-63051417D01*
X13770587Y-63822335D02*
X13977438Y-64662858D01*
X14025670Y-55777072D02*
X14431656Y-57454601D01*
X9432675Y-45980780D02*
X10175555Y-47174127D01*
X7454678Y-43352082D02*
X7746256Y-43670938D01*
X15088707Y-62369624D02*
X15159072Y-63517634D01*
X7779852Y-54449918D02*
X8558281Y-55118265D01*
X15159072Y-63517634D02*
X15209306Y-64731489D01*
X12344357Y-51248922D02*
X12976590Y-52702093D01*
X14559342Y-67643647D02*
X14740000Y-68800000D01*
X7454677Y-43352082D02*
G75*
G02X-7454678Y-43352082I-7454677J16281782D01*
G01*
X8719041Y-44925248D02*
X9432675Y-45980780D01*
X11654456Y-49835582D02*
X12344357Y-51248922D01*
X14887189Y-60253662D02*
X14998114Y-61283211D01*
X10175555Y-47174127D02*
X10924181Y-48469746D01*
X15239498Y-66014796D02*
X15249715Y-67370361D01*
X13557562Y-63051417D02*
X13770587Y-63822335D01*
X8558281Y-55118265D02*
X9269043Y-55805795D01*
X10924181Y-48469746D02*
X11654456Y-49835582D01*
X9269043Y-55805795D02*
X9923300Y-56505146D01*
X15209306Y-64731489D02*
X15239498Y-66014796D01*
X15249715Y-67370361D02*
X15240000Y-68800000D01*
X14998114Y-61283211D02*
X15088707Y-62369624D01*
X12646527Y-60556812D02*
X13113607Y-61697659D01*
X13539398Y-54203895D02*
X14025670Y-55777072D01*
X14431656Y-57454601D02*
X14755842Y-59275903D01*
X8054946Y-44040787D02*
X8719041Y-44925248D01*
X9923300Y-56505146D02*
X11102415Y-57948868D01*
X13977438Y-64662858D02*
X14177948Y-65577512D01*
X11642636Y-58726199D02*
X12156522Y-59581659D01*
X12976590Y-52702093D02*
X13539398Y-54203895D01*
X7746256Y-43670938D02*
X8054946Y-44040787D01*
X-14371961Y-66570122D02*
X-14559342Y-67643647D01*
X-11102415Y-57948868D02*
X-11642636Y-58726199D01*
X6922878Y-53811939D02*
X7779852Y-54449918D01*
X5977876Y-53216333D02*
X6922878Y-53811939D01*
X4938074Y-52672647D02*
X5977876Y-53216333D01*
X-14559342Y-67643647D02*
X-14740000Y-68800000D01*
X-13770587Y-63822335D02*
X-13977438Y-64662858D01*
X-13557562Y-63051417D02*
X-13770587Y-63822335D01*
X-12156522Y-59581659D02*
X-12646527Y-60556812D01*
X-11642636Y-58726199D02*
X-12156522Y-59581659D01*
X-8558281Y-55118265D02*
X-9269043Y-55805795D01*
X-15240000Y-68800000D02*
X-14740000Y-68800000D01*
X-12646527Y-60556812D02*
X-13113607Y-61697659D01*
X-14177948Y-65577512D02*
X-14371961Y-66570122D01*
X-9923300Y-56505146D02*
X-11102415Y-57948868D01*
X-13977438Y-64662858D02*
X-14177948Y-65577512D01*
X-13338522Y-62345022D02*
X-13557562Y-63051417D01*
X-13113607Y-61697659D02*
X-13338522Y-62345022D01*
X-9269043Y-55805795D02*
X-9923300Y-56505146D01*
X-14887189Y-60253662D02*
X-14998114Y-61283211D01*
X-13539398Y-54203895D02*
X-14025670Y-55777072D01*
X-15249715Y-67370361D02*
X-15240000Y-68800000D01*
X-12976590Y-52702093D02*
X-13539398Y-54203895D01*
X-14755842Y-59275903D02*
X-14887189Y-60253662D01*
X-14025670Y-55777072D02*
X-14431656Y-57454601D01*
X-15239498Y-66014796D02*
X-15249715Y-67370361D01*
X-8054946Y-44040787D02*
X-8719041Y-44925248D01*
X-7746256Y-43670938D02*
X-8054946Y-44040787D01*
X-7454678Y-43352082D02*
X-7746256Y-43670938D01*
X-14431656Y-57454601D02*
X-14755842Y-59275903D01*
X-15088707Y-62369624D02*
X-15159072Y-63517634D01*
X-15159072Y-63517634D02*
X-15209306Y-64731489D01*
X-15209306Y-64731489D02*
X-15239498Y-66014796D01*
X-9432675Y-45980780D02*
X-10175555Y-47174127D01*
X-10175555Y-47174127D02*
X-10924181Y-48469746D01*
X-4938074Y-52672647D02*
X-5977876Y-53216333D01*
X-14998114Y-61283211D02*
X-15088707Y-62369624D01*
X-10924181Y-48469746D02*
X-11654456Y-49835582D01*
X-11654456Y-49835582D02*
X-12344357Y-51248922D01*
X-8719041Y-44925248D02*
X-9432675Y-45980780D01*
X-7779852Y-54449918D02*
X-8558281Y-55118265D01*
X-6922878Y-53811939D02*
X-7779852Y-54449918D01*
X-12344357Y-51248922D02*
X-12976590Y-52702093D01*
X-5977876Y-53216333D02*
X-6922878Y-53811939D01*
X-8005377Y-22805902D02*
X-7444921Y-25352082D01*
X-8461668Y-20368150D02*
X-8005377Y-22805902D01*
X9442432Y-27980780D02*
X10185312Y-29174127D01*
X12986347Y-34702093D02*
X13549155Y-36203895D01*
X8568038Y-37118265D02*
X9278800Y-37805795D01*
X7789609Y-36449918D02*
X8568038Y-37118265D01*
X4947831Y-34672647D02*
X5987633Y-35216333D01*
X8728798Y-26925248D02*
X9442432Y-27980780D01*
X15249255Y-48014796D02*
X15259472Y-49370361D01*
X14441413Y-39454601D02*
X14765599Y-41275903D01*
X14035427Y-37777072D02*
X14441413Y-39454601D01*
X13549155Y-36203895D02*
X14035427Y-37777072D01*
X11664213Y-31835582D02*
X12354114Y-33248922D01*
X7756013Y-25670938D02*
X8064703Y-26040787D01*
X15098464Y-44369624D02*
X15168829Y-45517634D01*
X9278800Y-37805795D02*
X9933057Y-38505146D01*
X6932635Y-35811939D02*
X7789609Y-36449918D01*
X15219063Y-46731489D02*
X15249255Y-48014796D01*
X14896946Y-42253662D02*
X15007871Y-43283211D01*
X15259472Y-49370361D02*
X15249757Y-50800000D01*
X5987633Y-35216333D02*
X6932635Y-35811939D01*
X8064703Y-26040787D02*
X8728798Y-26925248D01*
X15168829Y-45517634D02*
X15219063Y-46731489D01*
X15007871Y-43283211D02*
X15098464Y-44369624D01*
X14765599Y-41275903D02*
X14896946Y-42253662D01*
X12354114Y-33248922D02*
X12986347Y-34702093D01*
X10185312Y-29174127D02*
X10933938Y-30469746D01*
X7464435Y-25352082D02*
X7756013Y-25670938D01*
X10933938Y-30469746D02*
X11664213Y-31835582D01*
X-13529641Y-36203895D02*
X-14015913Y-37777072D01*
X9757Y0D02*
X1362634Y-936666D01*
X-15229741Y-48014796D02*
X-15239958Y-49370361D01*
X-15149315Y-45517634D02*
X-15199549Y-46731489D01*
X-14015913Y-37777072D02*
X-14421899Y-39454601D01*
X8275873Y-8707589D02*
X8514788Y-9463425D01*
X-14877432Y-42253662D02*
X-14988357Y-43283211D01*
X-14746085Y-41275903D02*
X-14877432Y-42253662D01*
X9049257Y-12887114D02*
X9079437Y-13843875D01*
X9022424Y-15874403D02*
X8818543Y-18053113D01*
X1362634Y-936666D02*
X2652049Y-1877783D01*
X6018428Y-4895881D02*
X6917115Y-6045283D01*
X9070053Y-14839975D02*
X9022424Y-15874403D01*
X9079437Y-13843875D02*
X9070053Y-14839975D01*
X8978407Y-11970438D02*
X9049257Y-12887114D01*
X8866030Y-11094282D02*
X8978407Y-11970438D01*
X8711564Y-10258723D02*
X8866030Y-11094282D01*
X2652049Y-1877783D02*
X3868008Y-2837202D01*
X-15078950Y-44369624D02*
X-15149315Y-45517634D01*
X8514788Y-9463425D02*
X8711564Y-10258723D01*
X7674484Y-7308523D02*
X7995424Y-7989898D01*
X-15199549Y-46731489D02*
X-15229741Y-48014796D01*
X7995424Y-7989898D02*
X8275873Y-8707589D01*
X6917115Y-6045283D02*
X7674484Y-7308523D01*
X-14421899Y-39454601D02*
X-14746085Y-41275903D01*
X4995930Y-3835153D02*
X6018428Y-4895881D01*
X-15239958Y-49370361D02*
X-15230243Y-50800000D01*
X3868008Y-2837202D02*
X4995930Y-3835153D01*
X-14988357Y-43283211D02*
X-15078950Y-44369624D01*
X-8045189Y-26040787D02*
X-8709284Y-26925248D01*
X13123364Y-43697659D02*
X13348279Y-44345022D01*
X-7736499Y-25670938D02*
X-8045189Y-26040787D01*
X14569099Y-49643647D02*
X14749757Y-50800000D01*
X13348279Y-44345022D02*
X13567319Y-45051417D01*
X12166279Y-41581659D02*
X12656284Y-42556812D01*
X11112172Y-39948868D02*
X11652393Y-40726199D01*
X-5968119Y-35216333D02*
X-6913121Y-35811939D01*
X-4928317Y-34672647D02*
X-5968119Y-35216333D01*
X-14168191Y-47577512D02*
X-14362204Y-48570122D01*
X-6913121Y-35811939D02*
X-7770095Y-36449918D01*
X14381718Y-48570122D02*
X14569099Y-49643647D01*
X9933057Y-38505146D02*
X11112172Y-39948868D01*
X-12966833Y-34702093D02*
X-13529641Y-36203895D01*
X-12334600Y-33248922D02*
X-12966833Y-34702093D01*
X-11644699Y-31835582D02*
X-12334600Y-33248922D01*
X-10165798Y-29174127D02*
X-10914424Y-30469746D01*
X-10914424Y-30469746D02*
X-11644699Y-31835582D01*
X-8709284Y-26925248D02*
X-9422918Y-27980780D01*
X-14549585Y-49643647D02*
X-14730243Y-50800000D01*
X-7770095Y-36449918D02*
X-8548524Y-37118265D01*
X-7444921Y-25352082D02*
X-7736499Y-25670938D01*
X-15230243Y-50800000D02*
X-14730243Y-50800000D01*
X-9913543Y-38505146D02*
X-11092658Y-39948868D01*
X-8548524Y-37118265D02*
X-9259286Y-37805795D01*
X-14362204Y-48570122D02*
X-14549585Y-49643647D01*
X-13967681Y-46662858D02*
X-14168191Y-47577512D01*
X-13760830Y-45822335D02*
X-13967681Y-46662858D01*
X-13103850Y-43697659D02*
X-13328765Y-44345022D01*
X-12636770Y-42556812D02*
X-13103850Y-43697659D01*
X-9259286Y-37805795D02*
X-9913543Y-38505146D01*
X14187705Y-47577512D02*
X14381718Y-48570122D01*
X13567319Y-45051417D02*
X13780344Y-45822335D01*
X11652393Y-40726199D02*
X12166279Y-41581659D01*
X-13547805Y-45051417D02*
X-13760830Y-45822335D01*
X-13328765Y-44345022D02*
X-13547805Y-45051417D01*
X-12146765Y-41581659D02*
X-12636770Y-42556812D01*
X-11632879Y-40726199D02*
X-12146765Y-41581659D01*
X-11092658Y-39948868D02*
X-11632879Y-40726199D01*
X15249757Y-50800000D02*
X14749757Y-50800000D01*
X12656284Y-42556812D02*
X13123364Y-43697659D01*
X13780344Y-45822335D02*
X13987195Y-46662858D01*
X13987195Y-46662858D02*
X14187705Y-47577512D01*
X-9422918Y-27980780D02*
X-10165798Y-29174127D01*
X-8799029Y-18053113D02*
X-8461668Y-20368150D01*
X-9002910Y-15874403D02*
X-8799029Y-18053113D01*
X-9050539Y-14839975D02*
X-9002910Y-15874403D01*
X-5998914Y-4895881D02*
X-6897601Y-6045283D01*
X-8256359Y-8707589D02*
X-8495274Y-9463425D01*
X8481182Y-20368150D02*
X8024891Y-22805902D01*
X-7654970Y-7308523D02*
X-7975910Y-7989898D01*
X-2632535Y-1877783D02*
X-3848494Y-2837202D01*
X-1343120Y-936666D02*
X-2632535Y-1877783D01*
X-9059923Y-13843875D02*
X-9050539Y-14839975D01*
X-9029743Y-12887114D02*
X-9059923Y-13843875D01*
X-8958893Y-11970438D02*
X-9029743Y-12887114D01*
X-7975910Y-7989898D02*
X-8256359Y-8707589D01*
X-8846516Y-11094282D02*
X-8958893Y-11970438D01*
X-8692050Y-10258723D02*
X-8846516Y-11094282D01*
X8818543Y-18053113D02*
X8481182Y-20368150D01*
X-8495274Y-9463425D02*
X-8692050Y-10258723D01*
X8024891Y-22805902D02*
X7464435Y-25352082D01*
X-4976416Y-3835153D02*
X-5998914Y-4895881D01*
X-3848494Y-2837202D02*
X-4976416Y-3835153D01*
X9757Y0D02*
X-1343120Y-936666D01*
X-6897601Y-6045283D02*
X-7654970Y-7308523D01*
X4070000Y-37580000D02*
X3930000Y-38000000D01*
X4590000Y-35840000D02*
X4070000Y-37580000D01*
X4920000Y-34720000D02*
X4590000Y-35840000D01*
X-4040000Y-37590000D02*
X-3950000Y-37910000D01*
X-4590000Y-35870000D02*
X-4040000Y-37590000D01*
X-4950000Y-34700000D02*
X-4590000Y-35870000D01*
X6153503Y-30434848D02*
X5134717Y-34008790D01*
X7460000Y-25350000D02*
X7061199Y-26978697D01*
X7061199Y-26978697D02*
X6153503Y-30434848D01*
X-7460000Y-25350000D02*
X-7054786Y-27026791D01*
X-7061199Y-26978697D02*
X-6153503Y-30434848D01*
X-6153503Y-30434848D02*
X-5134717Y-34008790D01*
X-7507405Y-25327942D02*
G75*
G03X7454678Y-25352082I7507405J16327942D01*
G01*
X5130000Y-34020000D02*
X4930000Y-34710000D01*
X-5130000Y-34020000D02*
X-4950000Y-34700000D01*
X-5785000Y-45178000D02*
G75*
G03X-5785000Y-45178000I-1200000J0D01*
G01*
X4360000Y-54570000D02*
X4010000Y-55700000D01*
X-4220000Y-55050000D02*
X-3960000Y-55870000D01*
X4010000Y-55700000D02*
X3900000Y-56020000D01*
X-4950000Y-52680000D02*
X-4800000Y-53140000D01*
X-4800000Y-53140000D02*
X-4220000Y-55050000D01*
X4930000Y-52670000D02*
X4360000Y-54570000D01*
X-6153503Y-48414848D02*
X-5134717Y-51988790D01*
X7450000Y-43350000D02*
X7310000Y-44020000D01*
X-6700000Y-46350000D02*
X-6153503Y-48414848D01*
X5130000Y-52000000D02*
X4930000Y-52690000D01*
X6700000Y-46340000D02*
X5980000Y-49050000D01*
X-5130000Y-52000000D02*
X-4950000Y-52680000D01*
X-7450000Y-43350000D02*
X-7310000Y-44000000D01*
X8185000Y-45178000D02*
G75*
G03X8185000Y-45178000I-1200000J0D01*
G01*
X6153503Y-48414848D02*
X5134717Y-51988790D01*
D11*
X-4000000Y-52700000D02*
X-4000000Y-51700000D01*
X-3750000Y-45200000D02*
X-3750000Y-45700000D01*
X-3000000Y-52700000D02*
X-4000000Y-52700000D01*
X-3250000Y-45200000D02*
X-3750000Y-45200000D01*
X-3750000Y-45700000D02*
X-3250000Y-45700000D01*
X-4000000Y-44950000D02*
X-3000000Y-44950000D01*
X-3750000Y-52450000D02*
X-3250000Y-52450000D01*
X-3000000Y-51700000D02*
X-3000000Y-52700000D01*
X-3250000Y-51950000D02*
X-3750000Y-51950000D01*
X-3250000Y-52450000D02*
X-3250000Y-51950000D01*
X-3250000Y-45700000D02*
X-3250000Y-45200000D01*
X-3000000Y-45950000D02*
X-4000000Y-45950000D01*
X-3000000Y-44950000D02*
X-3000000Y-45950000D01*
X-4000000Y-51700000D02*
X-3000000Y-51700000D01*
X-3750000Y-51950000D02*
X-3750000Y-52450000D01*
X-4000000Y-45950000D02*
X-4000000Y-44950000D01*
X3250000Y-52450000D02*
X3750000Y-52450000D01*
X3250000Y-51950000D02*
X3250000Y-52450000D01*
X3750000Y-52450000D02*
X3750000Y-51950000D01*
X3250000Y-45200000D02*
X3250000Y-45700000D01*
X3000000Y-44950000D02*
X4000000Y-44950000D01*
X3250000Y-45700000D02*
X3750000Y-45700000D01*
X3750000Y-45200000D02*
X3250000Y-45200000D01*
X4000000Y-51700000D02*
X4000000Y-52700000D01*
X3000000Y-51700000D02*
X4000000Y-51700000D01*
X3000000Y-52700000D02*
X3000000Y-51700000D01*
X3750000Y-51950000D02*
X3250000Y-51950000D01*
X4000000Y-52700000D02*
X3000000Y-52700000D01*
X3000000Y-45950000D02*
X3000000Y-44950000D01*
X4000000Y-45950000D02*
X3000000Y-45950000D01*
X4000000Y-44950000D02*
X4000000Y-45950000D01*
X3750000Y-45700000D02*
X3750000Y-45200000D01*
X4000000Y-28000000D02*
X3000000Y-28000000D01*
X3750000Y-27750000D02*
X3750000Y-27250000D01*
X3000000Y-28000000D02*
X3000000Y-27000000D01*
X4000000Y-27000000D02*
X4000000Y-28000000D01*
X3250000Y-27250000D02*
X3250000Y-27750000D01*
X3000000Y-27000000D02*
X4000000Y-27000000D01*
X3250000Y-27750000D02*
X3750000Y-27750000D01*
X3750000Y-27250000D02*
X3250000Y-27250000D01*
X4000000Y-33750000D02*
X4000000Y-34750000D01*
X3000000Y-33750000D02*
X4000000Y-33750000D01*
X3000000Y-34750000D02*
X3000000Y-33750000D01*
X3750000Y-34000000D02*
X3250000Y-34000000D01*
X4000000Y-34750000D02*
X3000000Y-34750000D01*
X3250000Y-34500000D02*
X3750000Y-34500000D01*
X3250000Y-34000000D02*
X3250000Y-34500000D01*
X3750000Y-34500000D02*
X3750000Y-34000000D01*
X-3000000Y-34250000D02*
G75*
G03X-3000000Y-34250000I-500000J0D01*
G01*
X-3250000Y-34250000D02*
G75*
G03X-3250000Y-34250000I-250000J0D01*
G01*
X-3250000Y-27500000D02*
G75*
G03X-3250000Y-27500000I-250000J0D01*
G01*
X-3000000Y-27500000D02*
G75*
G03X-3000000Y-27500000I-500000J0D01*
G01*
X-3000000Y-27500000D02*
G75*
G03X-3000000Y-27500000I-500000J0D01*
G01*
X-3250000Y-27500000D02*
G75*
G03X-3250000Y-27500000I-250000J0D01*
G01*
M02*
