G04 #@! TF.GenerationSoftware,KiCad,Pcbnew,(5.0.0-rc2-198-gb8bbb15aa)*
G04 #@! TF.CreationDate,2018-07-05T00:48:06-05:00*
G04 #@! TF.ProjectId,rocket,726F636B65742E6B696361645F706362,rev?*
G04 #@! TF.SameCoordinates,Original*
G04 #@! TF.FileFunction,Profile,NP*
%FSLAX46Y46*%
G04 Gerber Fmt 4.6, Leading zero omitted, Abs format (unit mm)*
G04 Created by KiCad (PCBNEW (5.0.0-rc2-198-gb8bbb15aa)) date 07/05/18 00:48:06*
%MOMM*%
%LPD*%
G01*
G04 APERTURE LIST*
%ADD10C,0.200000*%
G04 APERTURE END LIST*
D10*
X-4938074Y-52672647D02*
X-4020349Y-55684534D01*
X4938074Y-52672647D02*
X4020349Y-55684534D01*
X7454677Y-43352082D02*
G75*
G02X1000000Y-44949580I-7454677J16281782D01*
G01*
X-1000000Y-44949579D02*
G75*
G02X-7454678Y-43352082I1000000J17879279D01*
G01*
X-1000000Y-55684534D02*
X1000000Y-55684534D01*
X1000000Y-49334534D02*
X1000000Y-44949580D01*
X-1000000Y-49334534D02*
X-1000000Y-44949580D01*
X1000000Y-49334534D02*
X0Y-49334534D01*
X-1000000Y-49334534D02*
X0Y-49334534D01*
X4020349Y-55684534D02*
X1000000Y-55684534D01*
X15249715Y-67370361D02*
X15240000Y-68800000D01*
X15239498Y-66014796D02*
X15249715Y-67370361D01*
X15209306Y-64731489D02*
X15239498Y-66014796D01*
X15159072Y-63517634D02*
X15209306Y-64731489D01*
X15088707Y-62369624D02*
X15159072Y-63517634D01*
X14998114Y-61283211D02*
X15088707Y-62369624D01*
X14887189Y-60253662D02*
X14998114Y-61283211D01*
X14755842Y-59275903D02*
X14887189Y-60253662D01*
X14431656Y-57454601D02*
X14755842Y-59275903D01*
X14025670Y-55777072D02*
X14431656Y-57454601D01*
X13539398Y-54203895D02*
X14025670Y-55777072D01*
X12976590Y-52702093D02*
X13539398Y-54203895D01*
X12344357Y-51248922D02*
X12976590Y-52702093D01*
X11654456Y-49835582D02*
X12344357Y-51248922D01*
X10924181Y-48469746D02*
X11654456Y-49835582D01*
X10175555Y-47174127D02*
X10924181Y-48469746D01*
X9432675Y-45980780D02*
X10175555Y-47174127D01*
X8719041Y-44925248D02*
X9432675Y-45980780D01*
X8054946Y-44040787D02*
X8719041Y-44925248D01*
X7746256Y-43670938D02*
X8054946Y-44040787D01*
X7454678Y-43352082D02*
X7746256Y-43670938D01*
X15240000Y-68800000D02*
X14740000Y-68800000D01*
X14559342Y-67643647D02*
X14740000Y-68800000D01*
X14371961Y-66570122D02*
X14559342Y-67643647D01*
X14177948Y-65577512D02*
X14371961Y-66570122D01*
X13977438Y-64662858D02*
X14177948Y-65577512D01*
X13770587Y-63822335D02*
X13977438Y-64662858D01*
X13557562Y-63051417D02*
X13770587Y-63822335D01*
X13338522Y-62345022D02*
X13557562Y-63051417D01*
X13113607Y-61697659D02*
X13338522Y-62345022D01*
X12646527Y-60556812D02*
X13113607Y-61697659D01*
X12156522Y-59581659D02*
X12646527Y-60556812D01*
X11642636Y-58726199D02*
X12156522Y-59581659D01*
X11102415Y-57948868D02*
X11642636Y-58726199D01*
X9923300Y-56505146D02*
X11102415Y-57948868D01*
X9269043Y-55805795D02*
X9923300Y-56505146D01*
X8558281Y-55118265D02*
X9269043Y-55805795D01*
X7779852Y-54449918D02*
X8558281Y-55118265D01*
X6922878Y-53811939D02*
X7779852Y-54449918D01*
X5977876Y-53216333D02*
X6922878Y-53811939D01*
X4938074Y-52672647D02*
X5977876Y-53216333D01*
X-15240000Y-68800000D02*
X-14740000Y-68800000D01*
X-14559342Y-67643647D02*
X-14740000Y-68800000D01*
X-14371961Y-66570122D02*
X-14559342Y-67643647D01*
X-14177948Y-65577512D02*
X-14371961Y-66570122D01*
X-13977438Y-64662858D02*
X-14177948Y-65577512D01*
X-13770587Y-63822335D02*
X-13977438Y-64662858D01*
X-13557562Y-63051417D02*
X-13770587Y-63822335D01*
X-13338522Y-62345022D02*
X-13557562Y-63051417D01*
X-13113607Y-61697659D02*
X-13338522Y-62345022D01*
X-12646527Y-60556812D02*
X-13113607Y-61697659D01*
X-12156522Y-59581659D02*
X-12646527Y-60556812D01*
X-11642636Y-58726199D02*
X-12156522Y-59581659D01*
X-11102415Y-57948868D02*
X-11642636Y-58726199D01*
X-9923300Y-56505146D02*
X-11102415Y-57948868D01*
X-9269043Y-55805795D02*
X-9923300Y-56505146D01*
X-8558281Y-55118265D02*
X-9269043Y-55805795D01*
X-7779852Y-54449918D02*
X-8558281Y-55118265D01*
X-6922878Y-53811939D02*
X-7779852Y-54449918D01*
X-5977876Y-53216333D02*
X-6922878Y-53811939D01*
X-4938074Y-52672647D02*
X-5977876Y-53216333D01*
X-15249715Y-67370361D02*
X-15240000Y-68800000D01*
X-15239498Y-66014796D02*
X-15249715Y-67370361D01*
X-15209306Y-64731489D02*
X-15239498Y-66014796D01*
X-15159072Y-63517634D02*
X-15209306Y-64731489D01*
X-15088707Y-62369624D02*
X-15159072Y-63517634D01*
X-14998114Y-61283211D02*
X-15088707Y-62369624D01*
X-14887189Y-60253662D02*
X-14998114Y-61283211D01*
X-14755842Y-59275903D02*
X-14887189Y-60253662D01*
X-14431656Y-57454601D02*
X-14755842Y-59275903D01*
X-14025670Y-55777072D02*
X-14431656Y-57454601D01*
X-13539398Y-54203895D02*
X-14025670Y-55777072D01*
X-12976590Y-52702093D02*
X-13539398Y-54203895D01*
X-12344357Y-51248922D02*
X-12976590Y-52702093D01*
X-11654456Y-49835582D02*
X-12344357Y-51248922D01*
X-10924181Y-48469746D02*
X-11654456Y-49835582D01*
X-10175555Y-47174127D02*
X-10924181Y-48469746D01*
X-9432675Y-45980780D02*
X-10175555Y-47174127D01*
X-8719041Y-44925248D02*
X-9432675Y-45980780D01*
X-8054946Y-44040787D02*
X-8719041Y-44925248D01*
X-7746256Y-43670938D02*
X-8054946Y-44040787D01*
X-7454678Y-43352082D02*
X-7746256Y-43670938D01*
X-4020349Y-55684534D02*
X-1000000Y-55684534D01*
X-7222188Y-6525925D02*
X-7686110Y-7350408D01*
X-6697913Y-5751777D02*
X-7222188Y-6525925D01*
X-6117538Y-5021738D02*
X-6697913Y-5751777D01*
X-5485704Y-4329157D02*
X-6117538Y-5021738D01*
X-4807234Y-3667213D02*
X-5485704Y-4329157D01*
X-3329379Y-2408655D02*
X-4807234Y-3667213D01*
X-1718619Y-1197825D02*
X-3329379Y-2408655D01*
X0Y0D02*
X-1718619Y-1197825D01*
X1000000Y-31000000D02*
X-1000000Y-31000000D01*
X1000000Y-37684534D02*
X1000000Y-31000000D01*
X-1000000Y-37684534D02*
X-1000000Y-31000000D01*
X4020349Y-37684534D02*
X1000000Y-37684534D01*
X4938074Y-34672647D02*
X4020349Y-37684534D01*
X7834754Y-23663787D02*
X7454678Y-25352082D01*
X8162567Y-22067977D02*
X7834754Y-23663787D01*
X8446040Y-20518214D02*
X8162567Y-22067977D01*
X8681297Y-19018241D02*
X8446040Y-20518214D01*
X8864481Y-17571704D02*
X8681297Y-19018241D01*
X8991864Y-16182031D02*
X8864481Y-17571704D01*
X9059944Y-14852320D02*
X8991864Y-16182031D01*
X9065558Y-13585211D02*
X9059944Y-14852320D01*
X9006009Y-12382747D02*
X9065558Y-13585211D01*
X8879192Y-11246225D02*
X9006009Y-12382747D01*
X8683736Y-10176045D02*
X8879192Y-11246225D01*
X8419159Y-9171534D02*
X8683736Y-10176045D01*
X8086036Y-8230758D02*
X8419159Y-9171534D01*
X7686110Y-7350408D02*
X8086036Y-8230758D01*
X7222188Y-6525925D02*
X7686110Y-7350408D01*
X6697913Y-5751777D02*
X7222188Y-6525925D01*
X6117538Y-5021738D02*
X6697913Y-5751777D01*
X5485704Y-4329157D02*
X6117538Y-5021738D01*
X4807234Y-3667213D02*
X5485704Y-4329157D01*
X3329379Y-2408655D02*
X4807234Y-3667213D01*
X1718619Y-1197825D02*
X3329379Y-2408655D01*
X0Y0D02*
X1718619Y-1197825D01*
X15249715Y-49370361D02*
X15240000Y-50800000D01*
X15239498Y-48014796D02*
X15249715Y-49370361D01*
X15209306Y-46731489D02*
X15239498Y-48014796D01*
X15159072Y-45517634D02*
X15209306Y-46731489D01*
X15088707Y-44369624D02*
X15159072Y-45517634D01*
X14998114Y-43283211D02*
X15088707Y-44369624D01*
X14887189Y-42253662D02*
X14998114Y-43283211D01*
X14755842Y-41275903D02*
X14887189Y-42253662D01*
X14431656Y-39454601D02*
X14755842Y-41275903D01*
X14025670Y-37777072D02*
X14431656Y-39454601D01*
X13539398Y-36203895D02*
X14025670Y-37777072D01*
X12976590Y-34702093D02*
X13539398Y-36203895D01*
X12344357Y-33248922D02*
X12976590Y-34702093D01*
X11654456Y-31835582D02*
X12344357Y-33248922D01*
X10924181Y-30469746D02*
X11654456Y-31835582D01*
X10175555Y-29174127D02*
X10924181Y-30469746D01*
X9432675Y-27980780D02*
X10175555Y-29174127D01*
X8719041Y-26925248D02*
X9432675Y-27980780D01*
X8054946Y-26040787D02*
X8719041Y-26925248D01*
X7746256Y-25670938D02*
X8054946Y-26040787D01*
X7454678Y-25352082D02*
X7746256Y-25670938D01*
X15240000Y-50800000D02*
X14740000Y-50800000D01*
X14559342Y-49643647D02*
X14740000Y-50800000D01*
X14371961Y-48570122D02*
X14559342Y-49643647D01*
X14177948Y-47577512D02*
X14371961Y-48570122D01*
X13977438Y-46662858D02*
X14177948Y-47577512D01*
X13770587Y-45822335D02*
X13977438Y-46662858D01*
X13557562Y-45051417D02*
X13770587Y-45822335D01*
X13338522Y-44345022D02*
X13557562Y-45051417D01*
X13113607Y-43697659D02*
X13338522Y-44345022D01*
X12646527Y-42556812D02*
X13113607Y-43697659D01*
X12156522Y-41581659D02*
X12646527Y-42556812D01*
X11642636Y-40726199D02*
X12156522Y-41581659D01*
X11102415Y-39948868D02*
X11642636Y-40726199D01*
X9923300Y-38505146D02*
X11102415Y-39948868D01*
X9269043Y-37805795D02*
X9923300Y-38505146D01*
X8558281Y-37118265D02*
X9269043Y-37805795D01*
X7779852Y-36449918D02*
X8558281Y-37118265D01*
X6922878Y-35811939D02*
X7779852Y-36449918D01*
X5977876Y-35216333D02*
X6922878Y-35811939D01*
X4938074Y-34672647D02*
X5977876Y-35216333D01*
X-15240000Y-50800000D02*
X-14740000Y-50800000D01*
X-14559342Y-49643647D02*
X-14740000Y-50800000D01*
X-14371961Y-48570122D02*
X-14559342Y-49643647D01*
X-14177948Y-47577512D02*
X-14371961Y-48570122D01*
X-13977438Y-46662858D02*
X-14177948Y-47577512D01*
X-13770587Y-45822335D02*
X-13977438Y-46662858D01*
X-13557562Y-45051417D02*
X-13770587Y-45822335D01*
X-13338522Y-44345022D02*
X-13557562Y-45051417D01*
X-13113607Y-43697659D02*
X-13338522Y-44345022D01*
X-12646527Y-42556812D02*
X-13113607Y-43697659D01*
X-12156522Y-41581659D02*
X-12646527Y-42556812D01*
X-11642636Y-40726199D02*
X-12156522Y-41581659D01*
X-11102415Y-39948868D02*
X-11642636Y-40726199D01*
X-9923300Y-38505146D02*
X-11102415Y-39948868D01*
X-9269043Y-37805795D02*
X-9923300Y-38505146D01*
X-8558281Y-37118265D02*
X-9269043Y-37805795D01*
X-7779852Y-36449918D02*
X-8558281Y-37118265D01*
X-6922878Y-35811939D02*
X-7779852Y-36449918D01*
X-5977876Y-35216333D02*
X-6922878Y-35811939D01*
X-4938074Y-34672647D02*
X-5977876Y-35216333D01*
X-15249715Y-49370361D02*
X-15240000Y-50800000D01*
X-15239498Y-48014796D02*
X-15249715Y-49370361D01*
X-15209306Y-46731489D02*
X-15239498Y-48014796D01*
X-15159072Y-45517634D02*
X-15209306Y-46731489D01*
X-15088707Y-44369624D02*
X-15159072Y-45517634D01*
X-14998114Y-43283211D02*
X-15088707Y-44369624D01*
X-14887189Y-42253662D02*
X-14998114Y-43283211D01*
X-14755842Y-41275903D02*
X-14887189Y-42253662D01*
X-14431656Y-39454601D02*
X-14755842Y-41275903D01*
X-14025670Y-37777072D02*
X-14431656Y-39454601D01*
X-13539398Y-36203895D02*
X-14025670Y-37777072D01*
X-12976590Y-34702093D02*
X-13539398Y-36203895D01*
X-12344357Y-33248922D02*
X-12976590Y-34702093D01*
X-11654456Y-31835582D02*
X-12344357Y-33248922D01*
X-10924181Y-30469746D02*
X-11654456Y-31835582D01*
X-10175555Y-29174127D02*
X-10924181Y-30469746D01*
X-9432675Y-27980780D02*
X-10175555Y-29174127D01*
X-8719041Y-26925248D02*
X-9432675Y-27980780D01*
X-8054946Y-26040787D02*
X-8719041Y-26925248D01*
X-7746256Y-25670938D02*
X-8054946Y-26040787D01*
X-7454678Y-25352082D02*
X-7746256Y-25670938D01*
X-4020349Y-37684534D02*
X-1000000Y-37684534D01*
X-4938074Y-34672647D02*
X-4020349Y-37684534D01*
X-7834754Y-23663787D02*
X-7454678Y-25352082D01*
X-8162567Y-22067977D02*
X-7834754Y-23663787D01*
X-8446040Y-20518214D02*
X-8162567Y-22067977D01*
X-8681297Y-19018241D02*
X-8446040Y-20518214D01*
X-8864481Y-17571704D02*
X-8681297Y-19018241D01*
X-8991864Y-16182031D02*
X-8864481Y-17571704D01*
X-9059944Y-14852320D02*
X-8991864Y-16182031D01*
X-9065558Y-13585211D02*
X-9059944Y-14852320D01*
X-9006009Y-12382747D02*
X-9065558Y-13585211D01*
X-8879192Y-11246225D02*
X-9006009Y-12382747D01*
X-8683736Y-10176045D02*
X-8879192Y-11246225D01*
X-8419159Y-9171534D02*
X-8683736Y-10176045D01*
X-8086036Y-8230758D02*
X-8419159Y-9171534D01*
X-7686110Y-7350408D02*
X-8086036Y-8230758D01*
M02*
